<svg xmlns="http://www.w3.org/2000/svg" viewBox="0 0 900 700" role="img" aria-labelledby="title desc">
  <title id="title">Rainbow name decal placeholder</title>
  <desc id="desc">Bright rainbow wall decal illustration.</desc>
  <rect width="900" height="700" fill="#fff0bf"/>
  <circle cx="120" cy="110" r="70" fill="#72c4bd"/>
  <circle cx="790" cy="120" r="96" fill="#ffa1a7"/>
  <path d="M175 498c0-156 126-282 282-282s282 126 282 282" fill="none" stroke="#ff6f61" stroke-width="64" stroke-linecap="round"/>
  <path d="M253 498c0-113 91-204 204-204s204 91 204 204" fill="none" stroke="#ffad14" stroke-width="64" stroke-linecap="round"/>
  <path d="M331 498c0-70 56-126 126-126s126 56 126 126" fill="none" stroke="#72c4bd" stroke-width="64" stroke-linecap="round"/>
  <path d="M410 498c0-26 21-47 47-47s47 21 47 47" fill="none" stroke="#5c8fb8" stroke-width="64" stroke-linecap="round"/>
  <path d="M181 550h552" stroke="#253044" stroke-width="18" stroke-linecap="round"/>
  <path d="M157 247l18 39 42 5-31 29 8 42-37-21-37 21 8-42-31-29 42-5z" fill="#ffad14"/>
</svg>
