<svg xmlns="http://www.w3.org/2000/svg" viewBox="0 0 900 700" role="img" aria-labelledby="title desc">
  <title id="title">Woodland wall set placeholder</title>
  <desc id="desc">Colourful woodland decals with trees and mushrooms.</desc>
  <rect width="900" height="700" fill="#dff4f2"/>
  <circle cx="725" cy="145" r="88" fill="#ffad14"/>
  <path d="M190 552l130-330 130 330z" fill="#72c4bd" stroke="#253044" stroke-width="12" stroke-linejoin="round"/>
  <path d="M410 552l108-274 108 274z" fill="#5c8fb8" stroke="#253044" stroke-width="12" stroke-linejoin="round"/>
  <path d="M280 552v70M518 552v70" stroke="#253044" stroke-width="26" stroke-linecap="round"/>
  <path d="M110 588c0-46 37-83 83-83s83 37 83 83z" fill="#ff6f61" stroke="#253044" stroke-width="12"/>
  <rect x="166" y="580" width="52" height="80" rx="24" fill="#fff9ef" stroke="#253044" stroke-width="12"/>
  <path d="M655 486l17 37 40 5-29 28 7 40-35-20-36 20 7-40-29-28 40-5z" fill="#ff6f61"/>
  <path d="M101 182l13 28 31 4-22 21 5 31-27-15-28 15 5-31-22-21 31-4z" fill="#ffad14"/>
</svg>
